# xmcd
#
# Track frame offsets: 
#        150
#        11270
#        19402
#        30569
#        42330
#        53667
#        68314
#        78242
#        88596
#        103324
#
# Disc length: 1526 seconds
#
# Revision: 1
# Processed by: cddbd v1.5.2PL0 Copyright (c) Steve Scherf et al.
# Submitted via: ExactAudioCopy v1.1
#
DISCID=6d05f40a
DTITLE=Don Gibson - K-TEL Greatest Hits: Don Gibson
DYEAR=2005
DGENRE=Country
TTITLE0=Oh, Lonesome Me
TTITLE1=Blue, Blue Day
TTITLE2=Just One Time
TTITLE3=I Can't Stop Lovin' You
TTITLE4=Sea Of Heartbreak
TTITLE5=Sweet Dreams
TTITLE6=Lonesome Number One
TTITLE7=Who Cares
TTITLE8=Woman (Sensuous Woman)
TTITLE9=Give Myself A Party
EXTD=
EXTT0=
EXTT1=
EXTT2=
EXTT3=
EXTT4=
EXTT5=
EXTT6=
EXTT7=
EXTT8=
EXTT9=
PLAYORDER=
